<svg xmlns="http://www.w3.org/2000/svg" xmlns:xlink="http://www.w3.org/1999/xlink" width="500" zoomAndPan="magnify" viewBox="0 0 375 374.999991" height="500" preserveAspectRatio="xMidYMid meet" version="1.0"><defs><g/></defs><g fill="#000000" fill-opacity="1"><g transform="translate(69.131235, 252.687756)"><g><path d="M 134.738281 -24.742188 L 95.648438 -166.34375 L 53.855469 -166.34375 C 55.726562 -160.3125 55.308594 -157.402344 53.855469 -151.582031 L 18.503906 -22.457031 C 16.425781 -14.761719 15.386719 -10.1875 10.398438 0 L 18.503906 0 C 19.128906 -9.773438 21 -14.761719 23.082031 -22.664062 L 33.0625 -59.46875 L 87.953125 -59.46875 L 97.519531 -24.742188 C 100.222656 -14.761719 101.679688 -10.398438 102.09375 0 L 144.511719 0 C 139.9375 -8.316406 137.648438 -13.722656 134.738281 -24.742188 Z M 34.308594 -63.835938 L 60.300781 -159.066406 L 86.707031 -63.835938 Z M 34.308594 -63.835938 "/></g></g></g><g fill="#5651e5" fill-opacity="1"><g transform="translate(163.26723, 252.847035)"><g><path d="M 149.921875 -22.25 L 86.085938 -105.214844 L 124.96875 -145.347656 C 132.453125 -152.832031 137.859375 -158.238281 148.257812 -166.347656 L 137.445312 -166.347656 C 132.039062 -158.238281 127.046875 -153.039062 118.730469 -144.722656 L 51.777344 -76.3125 L 51.777344 -121.847656 C 51.777344 -141.1875 52.398438 -150.542969 54.0625 -166.347656 L 14.554688 -166.347656 C 16.21875 -150.542969 16.84375 -141.1875 16.84375 -121.847656 L 16.84375 -44.496094 C 16.84375 -25.160156 16.21875 -15.804688 14.554688 0 L 54.0625 0 C 52.398438 -15.804688 51.777344 -25.160156 51.777344 -44.496094 L 51.777344 -70.074219 L 60.925781 -79.429688 L 105.628906 -22.25 C 113.53125 -11.644531 116.441406 -8.109375 120.394531 0 L 171.960938 0 C 161.773438 -7.902344 156.992188 -13.101562 149.921875 -22.25 Z M 149.921875 -22.25 "/></g></g></g><g fill="#1e1e1e" fill-opacity="1"><g transform="translate(79.279925, 288.316152)"><g><path d="M 7.8125 -2.265625 L 2.75 -2.265625 L 1.78125 0 L 0.015625 0 L 4.453125 -10.046875 L 6.1875 -10.046875 L 10.578125 0 L 8.78125 0 Z M 7.171875 -3.78125 L 5.265625 -8.25 L 3.375 -3.78125 Z M 7.171875 -3.78125 "/></g></g></g><g fill="#1e1e1e" fill-opacity="1"><g transform="translate(98.636858, 288.316152)"><g><path d="M 10.03125 0 L 8.375 0 L 3.015625 -7.203125 L 3.015625 0 L 1.328125 0 L 1.328125 -10.046875 L 2.984375 -10.046875 L 8.375 -2.828125 L 8.375 -10.046875 L 10.03125 -10.046875 Z M 10.03125 0 "/></g></g></g><g fill="#1e1e1e" fill-opacity="1"><g transform="translate(118.768991, 288.316152)"><g><path d="M 1.328125 -10.046875 L 5.4375 -10.046875 C 6.945312 -10.046875 8.191406 -9.570312 9.171875 -8.625 C 10.148438 -7.675781 10.640625 -6.472656 10.640625 -5.015625 C 10.640625 -3.566406 10.144531 -2.367188 9.15625 -1.421875 C 8.175781 -0.472656 6.925781 0 5.40625 0 L 1.328125 0 Z M 3.015625 -8.53125 L 3.015625 -1.515625 L 5.484375 -1.515625 C 6.472656 -1.515625 7.296875 -1.84375 7.953125 -2.5 C 8.609375 -3.15625 8.9375 -3.988281 8.9375 -5 C 8.9375 -6.019531 8.597656 -6.863281 7.921875 -7.53125 C 7.242188 -8.195312 6.40625 -8.53125 5.40625 -8.53125 Z M 3.015625 -8.53125 "/></g></g></g><g fill="#1e1e1e" fill-opacity="1"><g transform="translate(138.657076, 288.316152)"><g><path d="M 7.703125 0 L 5.859375 -3.046875 C 5.765625 -3.035156 5.613281 -3.03125 5.40625 -3.03125 L 3.015625 -3.03125 L 3.015625 0 L 1.328125 0 L 1.328125 -10.046875 L 5.40625 -10.046875 C 6.6875 -10.046875 7.679688 -9.742188 8.390625 -9.140625 C 9.097656 -8.546875 9.453125 -7.707031 9.453125 -6.625 C 9.453125 -5.8125 9.269531 -5.128906 8.90625 -4.578125 C 8.550781 -4.023438 8.035156 -3.617188 7.359375 -3.359375 L 9.625 0 Z M 3.015625 -4.546875 L 5.40625 -4.546875 C 7.03125 -4.546875 7.84375 -5.222656 7.84375 -6.578125 C 7.84375 -7.878906 7.03125 -8.53125 5.40625 -8.53125 L 3.015625 -8.53125 Z M 3.015625 -4.546875 "/></g></g></g><g fill="#1e1e1e" fill-opacity="1"><g transform="translate(157.79868, 288.316152)"><g><path d="M 8.5 -8.53125 L 3.015625 -8.53125 L 3.015625 -5.8125 L 7.921875 -5.8125 L 7.921875 -4.296875 L 3.015625 -4.296875 L 3.015625 -1.515625 L 8.671875 -1.515625 L 8.671875 0 L 1.328125 0 L 1.328125 -10.046875 L 8.5 -10.046875 Z M 8.5 -8.53125 "/></g></g></g><g fill="#1e1e1e" fill-opacity="1"><g transform="translate(175.978466, 288.316152)"><g><path d="M 11.65625 0 L 9.921875 0 L 7.53125 -7.84375 L 5.125 0 L 3.375 0 L 0.046875 -10.046875 L 1.859375 -10.046875 L 4.3125 -1.875 L 6.734375 -10.03125 L 8.40625 -10.046875 L 10.84375 -1.875 L 13.265625 -10.046875 L 15.015625 -10.046875 Z M 11.65625 0 "/></g></g></g><g fill="#1e1e1e" fill-opacity="1"><g transform="translate(199.613353, 288.316152)"><g/></g></g><g fill="#1e1e1e" fill-opacity="1"><g transform="translate(212.07963, 288.316152)"><g><path d="M 8.03125 0 L 4.71875 -4.4375 L 3.015625 -2.5625 L 3.015625 0 L 1.328125 0 L 1.328125 -10.046875 L 3.015625 -10.046875 L 3.015625 -4.859375 L 7.8125 -10.046875 L 9.8125 -10.046875 L 5.921875 -5.765625 L 10.0625 0 Z M 8.03125 0 "/></g></g></g><g fill="#1e1e1e" fill-opacity="1"><g transform="translate(231.149456, 288.316152)"><g><path d="M 7.8125 -2.265625 L 2.75 -2.265625 L 1.78125 0 L 0.015625 0 L 4.453125 -10.046875 L 6.1875 -10.046875 L 10.578125 0 L 8.78125 0 Z M 7.171875 -3.78125 L 5.265625 -8.25 L 3.375 -3.78125 Z M 7.171875 -3.78125 "/></g></g></g><g fill="#1e1e1e" fill-opacity="1"><g transform="translate(250.506393, 288.316152)"><g><path d="M 1.328125 -10.046875 L 5.328125 -10.046875 C 6.585938 -10.046875 7.566406 -9.742188 8.265625 -9.140625 C 8.960938 -8.546875 9.3125 -7.707031 9.3125 -6.625 C 9.3125 -5.476562 8.960938 -4.59375 8.265625 -3.96875 C 7.566406 -3.34375 6.585938 -3.03125 5.328125 -3.03125 L 3.015625 -3.03125 L 3.015625 0 L 1.328125 0 Z M 3.015625 -8.53125 L 3.015625 -4.546875 L 5.25 -4.546875 C 6.875 -4.546875 7.6875 -5.222656 7.6875 -6.578125 C 7.6875 -7.878906 6.875 -8.53125 5.25 -8.53125 Z M 3.015625 -8.53125 "/></g></g></g><g fill="#1e1e1e" fill-opacity="1"><g transform="translate(268.930212, 288.316152)"><g><path d="M 4.625 -10.125 C 5.925781 -10.125 7.097656 -9.78125 8.140625 -9.09375 L 7.4375 -7.59375 C 6.414062 -8.21875 5.4375 -8.53125 4.5 -8.53125 C 3.988281 -8.53125 3.585938 -8.4375 3.296875 -8.25 C 3.003906 -8.070312 2.859375 -7.816406 2.859375 -7.484375 C 2.859375 -7.148438 2.988281 -6.863281 3.25 -6.625 C 3.519531 -6.394531 3.859375 -6.222656 4.265625 -6.109375 C 4.671875 -5.992188 5.109375 -5.851562 5.578125 -5.6875 C 6.046875 -5.519531 6.476562 -5.34375 6.875 -5.15625 C 7.28125 -4.96875 7.613281 -4.675781 7.875 -4.28125 C 8.132812 -3.882812 8.265625 -3.40625 8.265625 -2.84375 C 8.265625 -1.957031 7.910156 -1.25 7.203125 -0.71875 C 6.503906 -0.195312 5.597656 0.0625 4.484375 0.0625 C 3.710938 0.0625 2.96875 -0.078125 2.25 -0.359375 C 1.53125 -0.648438 0.90625 -1.039062 0.375 -1.53125 L 1.109375 -3 C 1.609375 -2.53125 2.160156 -2.164062 2.765625 -1.90625 C 3.378906 -1.65625 3.960938 -1.53125 4.515625 -1.53125 C 5.109375 -1.53125 5.566406 -1.640625 5.890625 -1.859375 C 6.222656 -2.078125 6.390625 -2.375 6.390625 -2.75 C 6.390625 -3.101562 6.253906 -3.394531 5.984375 -3.625 C 5.710938 -3.863281 5.375 -4.035156 4.96875 -4.140625 C 4.570312 -4.253906 4.140625 -4.390625 3.671875 -4.546875 C 3.203125 -4.703125 2.765625 -4.867188 2.359375 -5.046875 C 1.960938 -5.222656 1.628906 -5.503906 1.359375 -5.890625 C 1.097656 -6.285156 0.96875 -6.765625 0.96875 -7.328125 C 0.96875 -8.171875 1.300781 -8.847656 1.96875 -9.359375 C 2.632812 -9.867188 3.519531 -10.125 4.625 -10.125 Z M 4.625 -10.125 "/></g></g></g><g fill="#1e1e1e" fill-opacity="1"><g transform="translate(286.621907, 288.316152)"><g><path d="M 7.8125 -2.265625 L 2.75 -2.265625 L 1.78125 0 L 0.015625 0 L 4.453125 -10.046875 L 6.1875 -10.046875 L 10.578125 0 L 8.78125 0 Z M 7.171875 -3.78125 L 5.265625 -8.25 L 3.375 -3.78125 Z M 7.171875 -3.78125 "/></g></g></g></svg>